<svg width="36" height="34" viewBox="0 0 36 34" fill="none" xmlns="http://www.w3.org/2000/svg">
<path fill-rule="evenodd" clip-rule="evenodd" d="M8.90973 4.32128C9.2722 3.69151 9.77654 3.15599 10.3822 2.75798L14.7001 0.283723C15.8453 -0.381773 16.7869 0.164234 16.7869 1.49523V15.4878C16.7869 16.8189 15.8453 17.3649 14.7001 16.6994L10.3822 14.1398C9.77654 13.7418 9.2722 13.2063 8.90973 12.5765C8.54732 11.9467 8.33685 11.2401 8.29537 10.5136V6.38412C8.33685 5.65761 8.54732 4.95105 8.90973 4.32128ZM7.91021 14.557C8.61277 14.557 9.3055 14.7207 9.93242 15.0347L14.1333 17.4171C15.2454 18.0535 15.2454 19.0897 14.1333 19.7261L2.43667 26.4165C1.3247 27.0529 0.410339 26.5307 0.410339 25.2579V20.4604C0.450614 19.7657 0.654958 19.09 1.00687 18.4878C1.35885 17.8855 1.84857 17.3735 2.43667 16.9929L5.88801 15.0347C6.51493 14.7207 7.20766 14.557 7.91021 14.557ZM25.6179 2.75798C26.2236 3.15599 26.7279 3.69151 27.0903 4.32128C27.4528 4.95105 27.6633 5.65761 27.7047 6.38412V10.5136C27.6633 11.2401 27.4528 11.9467 27.0903 12.5765C26.7279 13.2063 26.2236 13.7418 25.6179 14.1398L21.2915 16.6994C20.1463 17.3649 19.2131 16.8189 19.2131 15.4878V1.49523C19.2131 0.164234 20.1463 -0.381773 21.2915 0.283723L25.6179 2.75798ZM27.7815 14.557C27.0493 14.557 26.3274 14.7207 25.6739 15.0347L21.2955 17.4171C20.1365 18.0535 20.1365 19.0897 21.2955 19.7261L33.4864 26.4165C34.6453 27.0529 35.5897 26.5307 35.5897 25.2579V20.4604C35.5494 19.7663 35.338 19.0908 34.9727 18.4885C34.6074 17.8862 34.0982 17.3739 33.4864 16.9929L29.8892 15.0347C29.2358 14.7207 28.5138 14.557 27.7815 14.557ZM7.87429 32.8827C8.50158 33.1963 9.19467 33.3597 9.89759 33.3597C10.6006 33.3597 11.2937 33.1963 11.9209 32.8827L15.3743 30.919C15.9618 30.5367 16.4505 30.0236 16.8012 29.4208C17.1519 28.818 17.3547 28.1423 17.3935 27.448V22.6569C17.3935 21.3858 16.4869 20.8643 15.3743 21.4999L3.67097 28.1813C2.55833 28.8168 2.55833 29.8516 3.67097 30.4872L7.87429 32.8827ZM18.618 29.4193C18.2528 28.8184 18.0411 28.1445 18.0001 27.4519V22.6559C18.0001 21.3857 18.9445 20.8646 20.1034 21.4997L32.2944 28.1766C33.4533 28.8117 33.4533 29.8459 32.2944 30.481L27.9159 32.883C27.2625 33.1965 26.5405 33.3597 25.8083 33.3597C25.076 33.3597 24.3541 33.1965 23.7006 32.883L20.1034 30.9125C19.492 30.5317 18.9833 30.0204 18.618 29.4193Z" fill="#36485C"/>
</svg>
